<svg xmlns="http://www.w3.org/2000/svg" data-name="Layer 1" viewBox="0 0 512 512"><path d="M405,220.21a5,5,0,0,0-3.15-1.12H373.1a5,5,0,0,0-5,5v24.84a5,5,0,0,0,5,5h52.53a5,5,0,0,0,4.4-7.37C425.29,237.75,413.78,227.37,405,220.21ZM378.1,243.94V229.1H400a142.32,142.32,0,0,1,15.78,14.84Z"/><path d="M409.68 209.89a15.45 15.45 0 0 0-8.75-2.72H365.87V170.94a5 5 0 0 0-5-5H170.2a5 5 0 0 0-5 5v75.26a5 5 0 0 0 0 5.46V318a5 5 0 0 0 5 5h39a29.17 29.17 0 0 0 57 0H371.7a29.17 29.17 0 0 0 57 0h27.61a15.47 15.47 0 0 0 15.4-15.27V282.92a15.29 15.29 0 0 0-2.61-8.58C449.27 244.8 429.83 223.73 409.68 209.89zm-53.81-33.95v68H175.2v-68zm-180.66 78H355.87V313H266.64c0-.11 0-.21 0-.32s-.06-.4-.09-.6-.09-.53-.14-.8-.08-.39-.12-.58-.12-.53-.18-.8-.09-.37-.14-.56-.15-.54-.23-.8l-.16-.52c-.09-.28-.18-.55-.28-.83l-.17-.47c-.11-.3-.23-.61-.36-.91l-.15-.37q-.26-.6-.54-1.19l0-.05q-.3-.63-.64-1.24l-.09-.15c-.19-.35-.39-.69-.59-1l-.21-.33c-.17-.27-.34-.55-.52-.82l-.26-.37-.52-.74-.29-.38-.54-.69-.32-.38-.56-.65-.34-.37-.59-.62-.35-.35-.64-.61-.35-.32-.7-.6-.33-.28-.79-.62-.28-.21q-.5-.37-1-.72l-.09-.06q-1.14-.77-2.36-1.44l-.27-.14-.94-.48-.38-.18-.86-.39-.44-.18-.84-.33-.47-.17-.83-.28-.5-.15-.84-.24-.5-.13-.87-.2-.5-.11-.9-.16L242 288l-1-.12-.44-.05-1.14-.09-.29 0c-.49 0-1 0-1.46 0s-1 0-1.46 0l-.29 0-1.14.09-.44.05-1 .12-.49.08-.9.16-.5.11-.87.2-.5.13-.84.24-.5.15-.83.28-.47.17-.83.33-.44.18-.86.39-.38.18-.94.48-.27.14q-1.21.66-2.36 1.44l-.09.06q-.51.35-1 .72l-.28.21-.79.62-.33.28-.7.6-.35.32-.64.61-.35.35-.59.62-.34.37-.56.65-.32.38-.54.69-.29.38-.52.74-.26.37c-.18.27-.35.54-.52.82l-.21.33c-.2.33-.4.67-.59 1l-.09.16q-.33.61-.64 1.24l0 .05q-.28.59-.54 1.19l-.15.37c-.12.3-.24.6-.36.91l-.17.47c-.1.28-.19.55-.28.83l-.16.52c-.08.27-.16.53-.23.8s-.09.37-.14.56-.13.53-.18.8-.08.39-.12.58-.1.53-.14.8-.06.4-.09.6 0 .21 0 .32H175.2zm62.51 82.12a19.17 19.17 0 1 1 19.17-19.17A19.19 19.19 0 0 1 237.72 336.06zm162.5 0a19.17 19.17 0 1 1 19.06-19.17c0 .31 0 .61 0 .92a5 5 0 0 0 0 .79A19.19 19.19 0 0 1 400.22 336.06zm61.52-28.35a5.42 5.42 0 0 1-5.4 5.33H429.12a29.21 29.21 0 0 0-27.63-25.29h-.08c-.4 0-.8 0-1.2 0h-.11A29.21 29.21 0 0 0 371.19 313h-5.32V217.17h35.06a5.49 5.49 0 0 1 3.1 1c19.08 13.1 37.66 33.31 56.8 61.79h0a5.31 5.31 0 0 1 .9 3zM135 260.1H64a5 5 0 0 0 0 10h71a5 5 0 0 0 0-10zM135 308.19H64a5 5 0 0 0 0 10h71a5 5 0 0 0 0-10zM115 291.57a5 5 0 0 0-5-5H46a5 5 0 0 0 0 10h64A5 5 0 0 0 115 291.57z"/></svg>