<svg xmlns="http://www.w3.org/2000/svg" viewBox="0 0 48 48"><g data-name="Layer 11"><path d="M37,40H12V14h8v4.84A10,10,0,0,0,14,28h0a10,10,0,0,0,20,0h0a10,10,0,0,0-6-9.14V14h5a1,1,0,0,0,0-2H30V9a1,1,0,0,0-1-1H19a1,1,0,0,0-1,1v3H12V5a1,1,0,0,0-2,0V40.18A3,3,0,0,0,8,43v2a1,1,0,0,0,1,1H39a1,1,0,0,0,1-1V43A3,3,0,0,0,37,40ZM24,36a8,8,0,0,1-8-7.35,8.14,8.14,0,0,1,7.56.26,11,11,0,0,0,4.73,1.24,11.13,11.13,0,0,0,3.53-.63A8,8,0,0,1,24,36Zm.26-9A2,2,0,0,1,28,28a.8.8,0,0,0,0,.15,9.94,9.94,0,0,1-3.62-1.06Zm7.71.33A12.82,12.82,0,0,1,30,28a4,4,0,0,0-7.6-1.68,9.5,9.5,0,0,0-6.25.19A8,8,0,0,1,32,27.35ZM26,18H22V14h4Zm-6-8h8v2H20ZM38,44H10V43a1,1,0,0,1,1-1H37a1,1,0,0,1,1,1Z"/><circle cx="22" cy="32" r="2"/><path d="M22,7a1,1,0,0,0,0-2h0a1,1,0,0,0,0,2Z"/><circle cx="26" cy="4" r="2"/></g></svg>