<svg xmlns="http://www.w3.org/2000/svg" viewBox="0 0 64 64"><path d="M44,19V39H55V19Zm0,22V51.5a5.5,5.5,0,0,0,11,0V41Zm2,7a1,1,0,0,1,1-1h1a1,1,0,0,1,0,2H47A1,1,0,0,1,46,48Zm3,7H48a1,1,0,0,1,0-2h1a1,1,0,0,1,0,2Zm1-11a1,1,0,0,1,1-1h1a1,1,0,0,1,0,2H51A1,1,0,0,1,50,44Zm3,8H52a1,1,0,0,1,0-2h1a1,1,0,0,1,0,2ZM34.14,5H25.57a1,1,0,0,0,0,2h3.35a1,1,0,0,0-.06.3V10h2V7.3A1,1,0,0,0,30.8,7h3.34a1,1,0,0,0,0-2ZM23.71,47.19v4.44a1,1,0,0,1-.31.72,1,1,0,0,1-.73.28c-5.47-.25-9.76-4.42-9.76-9.5V30.87c0-4.86,4-8.93,9.13-9.46l0-.13c0-.07,0-.14.05-.21a4.13,4.13,0,0,1,.15-.5c0-.06.05-.13.08-.19a4.47,4.47,0,0,1,.33-.61l0,0a3.31,3.31,0,0,1,.41-.5l.15-.15c.13-.12.26-.22.39-.32l.17-.12a4,4,0,0,1,.61-.33h0a3.31,3.31,0,0,1,.53-.18V17H22.94C14.7,17,8,23.12,8,30.65v12.7C8,50.76,14.61,56.89,22.72,57H36V47.19ZM26,20a2,2,0,0,0-2,2,.55.55,0,0,0,0,.18A2,2,0,1,0,26,20Zm1-7.8v5.93c.14,0,.26.09.39.13l.2.07a4.77,4.77,0,0,1,.63.34l.12.1a5,5,0,0,1,.43.35l.17.19a2.6,2.6,0,0,1,.3.36l.15.23c.08.13.15.26.22.4s.07.16.11.25a3.64,3.64,0,0,1,.14.47,2,2,0,0,1,.06.23,3.56,3.56,0,0,1,0,1.5,2,2,0,0,1-.06.23,3.64,3.64,0,0,1-.14.47c0,.09-.08.17-.11.25s-.14.27-.22.4l-.15.23a2.6,2.6,0,0,1-.3.36l-.17.19a5,5,0,0,1-.43.35l-.12.1a4.77,4.77,0,0,1-.63.34l-.2.07c-.13,0-.25.1-.39.13V28.4h6.14V12.2ZM28.86,31v3.6a1,1,0,1,0,2,0V31Z" data-name="24-Biochemical Analysis"/></svg>