<svg xmlns="http://www.w3.org/2000/svg" enable-background="new 0 0 64 64" viewBox="0 0 64 64"><path d="M35.722,17.135l1.454,1.417l2.507-2.572l-1.454-1.417c0.329-0.575,0.58-1.198,0.741-1.857L41,12.68L40.954,9.09
	l-2.031,0.026c-0.178-0.655-0.444-1.271-0.788-1.837l1.417-1.454l-2.572-2.507l-1.417,1.454c-0.575-0.329-1.198-0.58-1.857-0.741
	L33.68,2L30.09,2.046l0.026,2.031c-0.655,0.178-1.271,0.444-1.837,0.788l-1.454-1.417l-2.507,2.572l1.454,1.417
	c-0.329,0.575-0.58,1.198-0.741,1.857L23,9.32l0.046,3.591l2.031-0.026c0.178,0.655,0.444,1.271,0.788,1.837l-1.417,1.454
	l2.572,2.507l1.417-1.454c0.575,0.329,1.198,0.58,1.857,0.741L30.32,20l3.591-0.046l-0.026-2.031
	C34.539,17.745,35.156,17.479,35.722,17.135z M28.971,10.992c-0.021-1.661,1.308-3.024,2.968-3.045
	c1.661-0.021,3.024,1.308,3.045,2.968c0.021,1.661-1.308,3.024-2.968,3.046C30.356,13.981,28.993,12.652,28.971,10.992z"/><polygon points="56 10 44 10 44 12 56 12 56 15 62 10.692 56 7"/><rect width="18" height="2" x="2" y="10"/><rect width="10" height="9" x="3" y="53"/><rect width="10" height="8" x="3" y="43"/><rect width="10" height="8" x="3" y="33"/><rect width="10" height="9" x="3" y="22"/><rect width="10" height="9" x="19" y="53"/><rect width="10" height="8" x="19" y="43"/><rect width="10" height="9" x="35" y="53"/><rect width="10" height="8" x="35" y="43"/><rect width="10" height="9" x="51" y="53"/><rect width="10" height="9" x="51" y="32"/><rect width="10" height="8" x="51" y="43"/></svg>